<?xml version="1.0" encoding="utf-8" standalone="no"?>
<!DOCTYPE svg PUBLIC "-//W3C//DTD SVG 1.1//EN"
  "http://www.w3.org/Graphics/SVG/1.1/DTD/svg11.dtd">
<svg xmlns:xlink="http://www.w3.org/1999/xlink" width="453.6pt" height="216pt" viewBox="0 0 453.6 216" xmlns="http://www.w3.org/2000/svg" version="1.1">
 <metadata>
  <rdf:RDF xmlns:dc="http://purl.org/dc/elements/1.1/" xmlns:cc="http://creativecommons.org/ns#" xmlns:rdf="http://www.w3.org/1999/02/22-rdf-syntax-ns#">
   <cc:Work>
    <dc:type rdf:resource="http://purl.org/dc/dcmitype/StillImage"/>
    <dc:date>2024-10-08T12:43:21.287034</dc:date>
    <dc:format>image/svg+xml</dc:format>
    <dc:creator>
     <cc:Agent>
      <dc:title>Matplotlib v3.9.2, https://matplotlib.org/</dc:title>
     </cc:Agent>
    </dc:creator>
   </cc:Work>
  </rdf:RDF>
 </metadata>
 <defs>
  <style type="text/css">*{stroke-linejoin: round; stroke-linecap: butt}</style>
 </defs>
 <g id="figure_1">
  <g id="patch_1">
   <path d="M 0 216 
L 453.6 216 
L 453.6 0 
L 0 0 
z
" style="fill: #ffffff"/>
  </g>
  <g id="axes_1">
   <g id="patch_2">
    <path d="M 36.83 180.7488 
L 142.538596 180.7488 
L 142.538596 21.12 
L 36.83 21.12 
z
" style="fill: #ffffff"/>
   </g>
   <g id="matplotlib.axis_1">
    <g id="xtick_1">
     <g id="line2d_1">
      <path d="M 41.634936 180.7488 
L 41.634936 21.12 
" clip-path="url(#p2c06ca576d)" style="fill: none; stroke: #cccccc; stroke-width: 0.8; stroke-linecap: round"/>
     </g>
     <g id="text_1">
      <!-- 0 -->
      <g style="fill: #262626" transform="translate(39.634936 193.3038) scale(0.08 -0.08)">
       <defs>
        <path id="TimesNewRomanPSMT-30" d="M 231 2094 
Q 231 2819 450 3342 
Q 669 3866 1031 4122 
Q 1313 4325 1613 4325 
Q 2100 4325 2488 3828 
Q 2972 3213 2972 2159 
Q 2972 1422 2759 906 
Q 2547 391 2217 158 
Q 1888 -75 1581 -75 
Q 975 -75 572 641 
Q 231 1244 231 2094 
z
M 844 2016 
Q 844 1141 1059 588 
Q 1238 122 1591 122 
Q 1759 122 1940 273 
Q 2122 425 2216 781 
Q 2359 1319 2359 2297 
Q 2359 3022 2209 3506 
Q 2097 3866 1919 4016 
Q 1791 4119 1609 4119 
Q 1397 4119 1231 3928 
Q 1006 3669 925 3112 
Q 844 2556 844 2016 
z
" transform="scale(0.015625)"/>
       </defs>
       <use xlink:href="#TimesNewRomanPSMT-30"/>
      </g>
     </g>
    </g>
    <g id="xtick_2">
     <g id="line2d_2">
      <path d="M 75.235888 180.7488 
L 75.235888 21.12 
" clip-path="url(#p2c06ca576d)" style="fill: none; stroke: #cccccc; stroke-width: 0.8; stroke-linecap: round"/>
     </g>
     <g id="text_2">
      <!-- 100 -->
      <g style="fill: #262626" transform="translate(69.235888 193.3038) scale(0.08 -0.08)">
       <defs>
        <path id="TimesNewRomanPSMT-31" d="M 750 3822 
L 1781 4325 
L 1884 4325 
L 1884 747 
Q 1884 391 1914 303 
Q 1944 216 2037 169 
Q 2131 122 2419 116 
L 2419 0 
L 825 0 
L 825 116 
Q 1125 122 1212 167 
Q 1300 213 1334 289 
Q 1369 366 1369 747 
L 1369 3034 
Q 1369 3497 1338 3628 
Q 1316 3728 1258 3775 
Q 1200 3822 1119 3822 
Q 1003 3822 797 3725 
L 750 3822 
z
" transform="scale(0.015625)"/>
       </defs>
       <use xlink:href="#TimesNewRomanPSMT-31"/>
       <use xlink:href="#TimesNewRomanPSMT-30" x="50"/>
       <use xlink:href="#TimesNewRomanPSMT-30" x="100"/>
      </g>
     </g>
    </g>
    <g id="xtick_3">
     <g id="line2d_3">
      <path d="M 108.836841 180.7488 
L 108.836841 21.12 
" clip-path="url(#p2c06ca576d)" style="fill: none; stroke: #cccccc; stroke-width: 0.8; stroke-linecap: round"/>
     </g>
     <g id="text_3">
      <!-- 200 -->
      <g style="fill: #262626" transform="translate(102.836841 193.3038) scale(0.08 -0.08)">
       <defs>
        <path id="TimesNewRomanPSMT-32" d="M 2934 816 
L 2638 0 
L 138 0 
L 138 116 
Q 1241 1122 1691 1759 
Q 2141 2397 2141 2925 
Q 2141 3328 1894 3587 
Q 1647 3847 1303 3847 
Q 991 3847 742 3664 
Q 494 3481 375 3128 
L 259 3128 
Q 338 3706 661 4015 
Q 984 4325 1469 4325 
Q 1984 4325 2329 3994 
Q 2675 3663 2675 3213 
Q 2675 2891 2525 2569 
Q 2294 2063 1775 1497 
Q 997 647 803 472 
L 1909 472 
Q 2247 472 2383 497 
Q 2519 522 2628 598 
Q 2738 675 2819 816 
L 2934 816 
z
" transform="scale(0.015625)"/>
       </defs>
       <use xlink:href="#TimesNewRomanPSMT-32"/>
       <use xlink:href="#TimesNewRomanPSMT-30" x="50"/>
       <use xlink:href="#TimesNewRomanPSMT-30" x="100"/>
      </g>
     </g>
    </g>
    <g id="xtick_4">
     <g id="line2d_4">
      <path d="M 142.437793 180.7488 
L 142.437793 21.12 
" clip-path="url(#p2c06ca576d)" style="fill: none; stroke: #cccccc; stroke-width: 0.8; stroke-linecap: round"/>
     </g>
     <g id="text_4">
      <!-- 300 -->
      <g style="fill: #262626" transform="translate(136.437793 193.3038) scale(0.08 -0.08)">
       <defs>
        <path id="TimesNewRomanPSMT-33" d="M 325 3431 
Q 506 3859 782 4092 
Q 1059 4325 1472 4325 
Q 1981 4325 2253 3994 
Q 2459 3747 2459 3466 
Q 2459 3003 1878 2509 
Q 2269 2356 2469 2072 
Q 2669 1788 2669 1403 
Q 2669 853 2319 450 
Q 1863 -75 997 -75 
Q 569 -75 414 31 
Q 259 138 259 259 
Q 259 350 332 419 
Q 406 488 509 488 
Q 588 488 669 463 
Q 722 447 909 348 
Q 1097 250 1169 231 
Q 1284 197 1416 197 
Q 1734 197 1970 444 
Q 2206 691 2206 1028 
Q 2206 1275 2097 1509 
Q 2016 1684 1919 1775 
Q 1784 1900 1550 2001 
Q 1316 2103 1072 2103 
L 972 2103 
L 972 2197 
Q 1219 2228 1467 2375 
Q 1716 2522 1828 2728 
Q 1941 2934 1941 3181 
Q 1941 3503 1739 3701 
Q 1538 3900 1238 3900 
Q 753 3900 428 3381 
L 325 3431 
z
" transform="scale(0.015625)"/>
       </defs>
       <use xlink:href="#TimesNewRomanPSMT-33"/>
       <use xlink:href="#TimesNewRomanPSMT-30" x="50"/>
       <use xlink:href="#TimesNewRomanPSMT-30" x="100"/>
      </g>
     </g>
    </g>
    <g id="text_5">
     <!-- Sample [5 mins] -->
     <g style="fill: #262626" transform="translate(63.243048 204.57005) scale(0.08 -0.08)">
      <defs>
       <path id="TimesNewRomanPSMT-53" d="M 2934 4334 
L 2934 2869 
L 2819 2869 
Q 2763 3291 2617 3541 
Q 2472 3791 2203 3937 
Q 1934 4084 1647 4084 
Q 1322 4084 1109 3886 
Q 897 3688 897 3434 
Q 897 3241 1031 3081 
Q 1225 2847 1953 2456 
Q 2547 2138 2764 1967 
Q 2981 1797 3098 1565 
Q 3216 1334 3216 1081 
Q 3216 600 2842 251 
Q 2469 -97 1881 -97 
Q 1697 -97 1534 -69 
Q 1438 -53 1133 45 
Q 828 144 747 144 
Q 669 144 623 97 
Q 578 50 556 -97 
L 441 -97 
L 441 1356 
L 556 1356 
Q 638 900 775 673 
Q 913 447 1195 297 
Q 1478 147 1816 147 
Q 2206 147 2432 353 
Q 2659 559 2659 841 
Q 2659 997 2573 1156 
Q 2488 1316 2306 1453 
Q 2184 1547 1640 1851 
Q 1097 2156 867 2337 
Q 638 2519 519 2737 
Q 400 2956 400 3219 
Q 400 3675 750 4004 
Q 1100 4334 1641 4334 
Q 1978 4334 2356 4169 
Q 2531 4091 2603 4091 
Q 2684 4091 2736 4139 
Q 2788 4188 2819 4334 
L 2934 4334 
z
" transform="scale(0.015625)"/>
       <path id="TimesNewRomanPSMT-61" d="M 1822 413 
Q 1381 72 1269 19 
Q 1100 -59 909 -59 
Q 613 -59 420 144 
Q 228 347 228 678 
Q 228 888 322 1041 
Q 450 1253 767 1440 
Q 1084 1628 1822 1897 
L 1822 2009 
Q 1822 2438 1686 2597 
Q 1550 2756 1291 2756 
Q 1094 2756 978 2650 
Q 859 2544 859 2406 
L 866 2225 
Q 866 2081 792 2003 
Q 719 1925 600 1925 
Q 484 1925 411 2006 
Q 338 2088 338 2228 
Q 338 2497 613 2722 
Q 888 2947 1384 2947 
Q 1766 2947 2009 2819 
Q 2194 2722 2281 2516 
Q 2338 2381 2338 1966 
L 2338 994 
Q 2338 584 2353 492 
Q 2369 400 2405 369 
Q 2441 338 2488 338 
Q 2538 338 2575 359 
Q 2641 400 2828 588 
L 2828 413 
Q 2478 -56 2159 -56 
Q 2006 -56 1915 50 
Q 1825 156 1822 413 
z
M 1822 616 
L 1822 1706 
Q 1350 1519 1213 1441 
Q 966 1303 859 1153 
Q 753 1003 753 825 
Q 753 600 887 451 
Q 1022 303 1197 303 
Q 1434 303 1822 616 
z
" transform="scale(0.015625)"/>
       <path id="TimesNewRomanPSMT-6d" d="M 1050 2338 
Q 1363 2650 1419 2697 
Q 1559 2816 1721 2881 
Q 1884 2947 2044 2947 
Q 2313 2947 2506 2790 
Q 2700 2634 2766 2338 
Q 3088 2713 3309 2830 
Q 3531 2947 3766 2947 
Q 3994 2947 4170 2830 
Q 4347 2713 4450 2447 
Q 4519 2266 4519 1878 
L 4519 647 
Q 4519 378 4559 278 
Q 4591 209 4675 161 
Q 4759 113 4950 113 
L 4950 0 
L 3538 0 
L 3538 113 
L 3597 113 
Q 3781 113 3884 184 
Q 3956 234 3988 344 
Q 4000 397 4000 647 
L 4000 1878 
Q 4000 2228 3916 2372 
Q 3794 2572 3525 2572 
Q 3359 2572 3192 2489 
Q 3025 2406 2788 2181 
L 2781 2147 
L 2788 2013 
L 2788 647 
Q 2788 353 2820 281 
Q 2853 209 2943 161 
Q 3034 113 3253 113 
L 3253 0 
L 1806 0 
L 1806 113 
Q 2044 113 2133 169 
Q 2222 225 2256 338 
Q 2272 391 2272 647 
L 2272 1878 
Q 2272 2228 2169 2381 
Q 2031 2581 1784 2581 
Q 1616 2581 1450 2491 
Q 1191 2353 1050 2181 
L 1050 647 
Q 1050 366 1089 281 
Q 1128 197 1204 155 
Q 1281 113 1516 113 
L 1516 0 
L 100 0 
L 100 113 
Q 297 113 375 155 
Q 453 197 493 289 
Q 534 381 534 647 
L 534 1741 
Q 534 2213 506 2350 
Q 484 2453 437 2492 
Q 391 2531 309 2531 
Q 222 2531 100 2484 
L 53 2597 
L 916 2947 
L 1050 2947 
L 1050 2338 
z
" transform="scale(0.015625)"/>
       <path id="TimesNewRomanPSMT-70" d="M -6 2578 
L 875 2934 
L 994 2934 
L 994 2266 
Q 1216 2644 1439 2795 
Q 1663 2947 1909 2947 
Q 2341 2947 2628 2609 
Q 2981 2197 2981 1534 
Q 2981 794 2556 309 
Q 2206 -88 1675 -88 
Q 1444 -88 1275 -22 
Q 1150 25 994 166 
L 994 -706 
Q 994 -1000 1030 -1079 
Q 1066 -1159 1155 -1206 
Q 1244 -1253 1478 -1253 
L 1478 -1369 
L -22 -1369 
L -22 -1253 
L 56 -1253 
Q 228 -1256 350 -1188 
Q 409 -1153 442 -1076 
Q 475 -1000 475 -688 
L 475 2019 
Q 475 2297 450 2372 
Q 425 2447 370 2484 
Q 316 2522 222 2522 
Q 147 2522 31 2478 
L -6 2578 
z
M 994 2081 
L 994 1013 
Q 994 666 1022 556 
Q 1066 375 1236 237 
Q 1406 100 1666 100 
Q 1978 100 2172 344 
Q 2425 663 2425 1241 
Q 2425 1897 2138 2250 
Q 1938 2494 1663 2494 
Q 1513 2494 1366 2419 
Q 1253 2363 994 2081 
z
" transform="scale(0.015625)"/>
       <path id="TimesNewRomanPSMT-6c" d="M 1184 4444 
L 1184 647 
Q 1184 378 1223 290 
Q 1263 203 1344 158 
Q 1425 113 1647 113 
L 1647 0 
L 244 0 
L 244 113 
Q 441 113 512 153 
Q 584 194 625 287 
Q 666 381 666 647 
L 666 3247 
Q 666 3731 644 3842 
Q 622 3953 573 3993 
Q 525 4034 450 4034 
Q 369 4034 244 3984 
L 191 4094 
L 1044 4444 
L 1184 4444 
z
" transform="scale(0.015625)"/>
       <path id="TimesNewRomanPSMT-65" d="M 681 1784 
Q 678 1147 991 784 
Q 1303 422 1725 422 
Q 2006 422 2214 576 
Q 2422 731 2563 1106 
L 2659 1044 
Q 2594 616 2278 264 
Q 1963 -88 1488 -88 
Q 972 -88 605 314 
Q 238 716 238 1394 
Q 238 2128 614 2539 
Q 991 2950 1559 2950 
Q 2041 2950 2350 2633 
Q 2659 2316 2659 1784 
L 681 1784 
z
M 681 1966 
L 2006 1966 
Q 1991 2241 1941 2353 
Q 1863 2528 1708 2628 
Q 1553 2728 1384 2728 
Q 1125 2728 920 2526 
Q 716 2325 681 1966 
z
" transform="scale(0.015625)"/>
       <path id="TimesNewRomanPSMT-20" transform="scale(0.015625)"/>
       <path id="TimesNewRomanPSMT-5b" d="M 1900 -1269 
L 525 -1269 
L 525 4334 
L 1900 4334 
L 1900 4088 
L 994 4088 
L 994 -1025 
L 1900 -1025 
L 1900 -1269 
z
" transform="scale(0.015625)"/>
       <path id="TimesNewRomanPSMT-35" d="M 2778 4238 
L 2534 3706 
L 1259 3706 
L 981 3138 
Q 1809 3016 2294 2522 
Q 2709 2097 2709 1522 
Q 2709 1188 2573 903 
Q 2438 619 2231 419 
Q 2025 219 1772 97 
Q 1413 -75 1034 -75 
Q 653 -75 479 54 
Q 306 184 306 341 
Q 306 428 378 495 
Q 450 563 559 563 
Q 641 563 702 538 
Q 763 513 909 409 
Q 1144 247 1384 247 
Q 1750 247 2026 523 
Q 2303 800 2303 1197 
Q 2303 1581 2056 1914 
Q 1809 2247 1375 2428 
Q 1034 2569 447 2591 
L 1259 4238 
L 2778 4238 
z
" transform="scale(0.015625)"/>
       <path id="TimesNewRomanPSMT-69" d="M 928 4444 
Q 1059 4444 1151 4351 
Q 1244 4259 1244 4128 
Q 1244 3997 1151 3903 
Q 1059 3809 928 3809 
Q 797 3809 703 3903 
Q 609 3997 609 4128 
Q 609 4259 701 4351 
Q 794 4444 928 4444 
z
M 1188 2947 
L 1188 647 
Q 1188 378 1227 289 
Q 1266 200 1342 156 
Q 1419 113 1622 113 
L 1622 0 
L 231 0 
L 231 113 
Q 441 113 512 153 
Q 584 194 626 287 
Q 669 381 669 647 
L 669 1750 
Q 669 2216 641 2353 
Q 619 2453 572 2492 
Q 525 2531 444 2531 
Q 356 2531 231 2484 
L 188 2597 
L 1050 2947 
L 1188 2947 
z
" transform="scale(0.015625)"/>
       <path id="TimesNewRomanPSMT-6e" d="M 1034 2341 
Q 1538 2947 1994 2947 
Q 2228 2947 2397 2830 
Q 2566 2713 2666 2444 
Q 2734 2256 2734 1869 
L 2734 647 
Q 2734 375 2778 278 
Q 2813 200 2889 156 
Q 2966 113 3172 113 
L 3172 0 
L 1756 0 
L 1756 113 
L 1816 113 
Q 2016 113 2095 173 
Q 2175 234 2206 353 
Q 2219 400 2219 647 
L 2219 1819 
Q 2219 2209 2117 2386 
Q 2016 2563 1775 2563 
Q 1403 2563 1034 2156 
L 1034 647 
Q 1034 356 1069 288 
Q 1113 197 1189 155 
Q 1266 113 1500 113 
L 1500 0 
L 84 0 
L 84 113 
L 147 113 
Q 366 113 442 223 
Q 519 334 519 647 
L 519 1709 
Q 519 2225 495 2337 
Q 472 2450 423 2490 
Q 375 2531 294 2531 
Q 206 2531 84 2484 
L 38 2597 
L 900 2947 
L 1034 2947 
L 1034 2341 
z
" transform="scale(0.015625)"/>
       <path id="TimesNewRomanPSMT-73" d="M 2050 2947 
L 2050 1972 
L 1947 1972 
Q 1828 2431 1642 2597 
Q 1456 2763 1169 2763 
Q 950 2763 815 2647 
Q 681 2531 681 2391 
Q 681 2216 781 2091 
Q 878 1963 1175 1819 
L 1631 1597 
Q 2266 1288 2266 781 
Q 2266 391 1970 151 
Q 1675 -88 1309 -88 
Q 1047 -88 709 6 
Q 606 38 541 38 
Q 469 38 428 -44 
L 325 -44 
L 325 978 
L 428 978 
Q 516 541 762 319 
Q 1009 97 1316 97 
Q 1531 97 1667 223 
Q 1803 350 1803 528 
Q 1803 744 1651 891 
Q 1500 1038 1047 1263 
Q 594 1488 453 1669 
Q 313 1847 313 2119 
Q 313 2472 555 2709 
Q 797 2947 1181 2947 
Q 1350 2947 1591 2875 
Q 1750 2828 1803 2828 
Q 1853 2828 1881 2850 
Q 1909 2872 1947 2947 
L 2050 2947 
z
" transform="scale(0.015625)"/>
       <path id="TimesNewRomanPSMT-5d" d="M 234 4334 
L 1609 4334 
L 1609 -1272 
L 234 -1272 
L 234 -1025 
L 1141 -1025 
L 1141 4088 
L 234 4088 
L 234 4334 
z
" transform="scale(0.015625)"/>
      </defs>
      <use xlink:href="#TimesNewRomanPSMT-53"/>
      <use xlink:href="#TimesNewRomanPSMT-61" x="55.615234"/>
      <use xlink:href="#TimesNewRomanPSMT-6d" x="100"/>
      <use xlink:href="#TimesNewRomanPSMT-70" x="177.783203"/>
      <use xlink:href="#TimesNewRomanPSMT-6c" x="227.783203"/>
      <use xlink:href="#TimesNewRomanPSMT-65" x="255.566406"/>
      <use xlink:href="#TimesNewRomanPSMT-20" x="299.951172"/>
      <use xlink:href="#TimesNewRomanPSMT-5b" x="324.951172"/>
      <use xlink:href="#TimesNewRomanPSMT-35" x="358.251953"/>
      <use xlink:href="#TimesNewRomanPSMT-20" x="408.251953"/>
      <use xlink:href="#TimesNewRomanPSMT-6d" x="433.251953"/>
      <use xlink:href="#TimesNewRomanPSMT-69" x="511.035156"/>
      <use xlink:href="#TimesNewRomanPSMT-6e" x="538.818359"/>
      <use xlink:href="#TimesNewRomanPSMT-73" x="588.818359"/>
      <use xlink:href="#TimesNewRomanPSMT-5d" x="627.734375"/>
     </g>
    </g>
   </g>
   <g id="matplotlib.axis_2">
    <g id="ytick_1">
     <g id="line2d_5">
      <path d="M 36.83 176.460126 
L 142.538596 176.460126 
" clip-path="url(#p2c06ca576d)" style="fill: none; stroke: #cccccc; stroke-width: 0.8; stroke-linecap: round"/>
     </g>
     <g id="text_6">
      <!-- 0.0 -->
      <g style="fill: #262626" transform="translate(19.83 179.237626) scale(0.08 -0.08)">
       <defs>
        <path id="TimesNewRomanPSMT-2e" d="M 800 606 
Q 947 606 1047 504 
Q 1147 403 1147 259 
Q 1147 116 1045 14 
Q 944 -88 800 -88 
Q 656 -88 554 14 
Q 453 116 453 259 
Q 453 406 554 506 
Q 656 606 800 606 
z
" transform="scale(0.015625)"/>
       </defs>
       <use xlink:href="#TimesNewRomanPSMT-30"/>
       <use xlink:href="#TimesNewRomanPSMT-2e" x="50"/>
       <use xlink:href="#TimesNewRomanPSMT-30" x="75"/>
      </g>
     </g>
    </g>
    <g id="ytick_2">
     <g id="line2d_6">
      <path d="M 36.83 148.986235 
L 142.538596 148.986235 
" clip-path="url(#p2c06ca576d)" style="fill: none; stroke: #cccccc; stroke-width: 0.8; stroke-linecap: round"/>
     </g>
     <g id="text_7">
      <!-- 0.5 -->
      <g style="fill: #262626" transform="translate(19.83 151.763735) scale(0.08 -0.08)">
       <use xlink:href="#TimesNewRomanPSMT-30"/>
       <use xlink:href="#TimesNewRomanPSMT-2e" x="50"/>
       <use xlink:href="#TimesNewRomanPSMT-35" x="75"/>
      </g>
     </g>
    </g>
    <g id="ytick_3">
     <g id="line2d_7">
      <path d="M 36.83 121.512344 
L 142.538596 121.512344 
" clip-path="url(#p2c06ca576d)" style="fill: none; stroke: #cccccc; stroke-width: 0.8; stroke-linecap: round"/>
     </g>
     <g id="text_8">
      <!-- 1.0 -->
      <g style="fill: #262626" transform="translate(19.83 124.289844) scale(0.08 -0.08)">
       <use xlink:href="#TimesNewRomanPSMT-31"/>
       <use xlink:href="#TimesNewRomanPSMT-2e" x="50"/>
       <use xlink:href="#TimesNewRomanPSMT-30" x="75"/>
      </g>
     </g>
    </g>
    <g id="ytick_4">
     <g id="line2d_8">
      <path d="M 36.83 94.038453 
L 142.538596 94.038453 
" clip-path="url(#p2c06ca576d)" style="fill: none; stroke: #cccccc; stroke-width: 0.8; stroke-linecap: round"/>
     </g>
     <g id="text_9">
      <!-- 1.5 -->
      <g style="fill: #262626" transform="translate(19.83 96.815953) scale(0.08 -0.08)">
       <use xlink:href="#TimesNewRomanPSMT-31"/>
       <use xlink:href="#TimesNewRomanPSMT-2e" x="50"/>
       <use xlink:href="#TimesNewRomanPSMT-35" x="75"/>
      </g>
     </g>
    </g>
    <g id="ytick_5">
     <g id="line2d_9">
      <path d="M 36.83 66.564563 
L 142.538596 66.564563 
" clip-path="url(#p2c06ca576d)" style="fill: none; stroke: #cccccc; stroke-width: 0.8; stroke-linecap: round"/>
     </g>
     <g id="text_10">
      <!-- 2.0 -->
      <g style="fill: #262626" transform="translate(19.83 69.342063) scale(0.08 -0.08)">
       <use xlink:href="#TimesNewRomanPSMT-32"/>
       <use xlink:href="#TimesNewRomanPSMT-2e" x="50"/>
       <use xlink:href="#TimesNewRomanPSMT-30" x="75"/>
      </g>
     </g>
    </g>
    <g id="ytick_6">
     <g id="line2d_10">
      <path d="M 36.83 39.090672 
L 142.538596 39.090672 
" clip-path="url(#p2c06ca576d)" style="fill: none; stroke: #cccccc; stroke-width: 0.8; stroke-linecap: round"/>
     </g>
     <g id="text_11">
      <!-- 2.5 -->
      <g style="fill: #262626" transform="translate(19.83 41.868172) scale(0.08 -0.08)">
       <use xlink:href="#TimesNewRomanPSMT-32"/>
       <use xlink:href="#TimesNewRomanPSMT-2e" x="50"/>
       <use xlink:href="#TimesNewRomanPSMT-35" x="75"/>
      </g>
     </g>
    </g>
    <g id="text_12">
     <!-- Load [kW] -->
     <g style="fill: #262626" transform="translate(14.11875 118.592525) rotate(-90) scale(0.08 -0.08)">
      <defs>
       <path id="TimesNewRomanPSMT-4c" d="M 3669 1172 
L 3772 1150 
L 3409 0 
L 128 0 
L 128 116 
L 288 116 
Q 556 116 672 291 
Q 738 391 738 753 
L 738 3488 
Q 738 3884 650 3984 
Q 528 4122 288 4122 
L 128 4122 
L 128 4238 
L 2047 4238 
L 2047 4122 
Q 1709 4125 1573 4059 
Q 1438 3994 1388 3894 
Q 1338 3794 1338 3416 
L 1338 753 
Q 1338 494 1388 397 
Q 1425 331 1503 300 
Q 1581 269 1991 269 
L 2300 269 
Q 2788 269 2984 341 
Q 3181 413 3343 595 
Q 3506 778 3669 1172 
z
" transform="scale(0.015625)"/>
       <path id="TimesNewRomanPSMT-6f" d="M 1600 2947 
Q 2250 2947 2644 2453 
Q 2978 2031 2978 1484 
Q 2978 1100 2793 706 
Q 2609 313 2286 112 
Q 1963 -88 1566 -88 
Q 919 -88 538 428 
Q 216 863 216 1403 
Q 216 1797 411 2186 
Q 606 2575 925 2761 
Q 1244 2947 1600 2947 
z
M 1503 2744 
Q 1338 2744 1170 2645 
Q 1003 2547 900 2300 
Q 797 2053 797 1666 
Q 797 1041 1045 587 
Q 1294 134 1700 134 
Q 2003 134 2200 384 
Q 2397 634 2397 1244 
Q 2397 2006 2069 2444 
Q 1847 2744 1503 2744 
z
" transform="scale(0.015625)"/>
       <path id="TimesNewRomanPSMT-64" d="M 2222 322 
Q 2013 103 1813 7 
Q 1613 -88 1381 -88 
Q 913 -88 563 304 
Q 213 697 213 1313 
Q 213 1928 600 2439 
Q 988 2950 1597 2950 
Q 1975 2950 2222 2709 
L 2222 3238 
Q 2222 3728 2198 3840 
Q 2175 3953 2125 3993 
Q 2075 4034 2000 4034 
Q 1919 4034 1784 3984 
L 1744 4094 
L 2597 4444 
L 2738 4444 
L 2738 1134 
Q 2738 631 2761 520 
Q 2784 409 2836 365 
Q 2888 322 2956 322 
Q 3041 322 3181 375 
L 3216 266 
L 2366 -88 
L 2222 -88 
L 2222 322 
z
M 2222 541 
L 2222 2016 
Q 2203 2228 2109 2403 
Q 2016 2578 1861 2667 
Q 1706 2756 1559 2756 
Q 1284 2756 1069 2509 
Q 784 2184 784 1559 
Q 784 928 1059 592 
Q 1334 256 1672 256 
Q 1956 256 2222 541 
z
" transform="scale(0.015625)"/>
       <path id="TimesNewRomanPSMT-6b" d="M 1047 4444 
L 1047 1594 
L 1775 2259 
Q 2006 2472 2044 2528 
Q 2069 2566 2069 2603 
Q 2069 2666 2017 2711 
Q 1966 2756 1847 2763 
L 1847 2863 
L 3091 2863 
L 3091 2763 
Q 2834 2756 2664 2684 
Q 2494 2613 2291 2428 
L 1556 1750 
L 2291 822 
Q 2597 438 2703 334 
Q 2853 188 2966 144 
Q 3044 113 3238 113 
L 3238 0 
L 1847 0 
L 1847 113 
Q 1966 116 2008 148 
Q 2050 181 2050 241 
Q 2050 313 1925 472 
L 1047 1594 
L 1047 644 
Q 1047 366 1086 278 
Q 1125 191 1197 153 
Q 1269 116 1509 113 
L 1509 0 
L 53 0 
L 53 113 
Q 272 113 381 166 
Q 447 200 481 272 
Q 528 375 528 628 
L 528 3234 
Q 528 3731 506 3842 
Q 484 3953 434 3995 
Q 384 4038 303 4038 
Q 238 4038 106 3984 
L 53 4094 
L 903 4444 
L 1047 4444 
z
" transform="scale(0.015625)"/>
       <path id="TimesNewRomanPSMT-57" d="M 5991 4238 
L 5991 4122 
Q 5825 4122 5722 4062 
Q 5619 4003 5525 3841 
Q 5463 3731 5328 3319 
L 4147 -97 
L 4022 -97 
L 3056 2613 
L 2097 -97 
L 1984 -97 
L 725 3422 
Q 584 3816 547 3888 
Q 484 4006 376 4064 
Q 269 4122 84 4122 
L 84 4238 
L 1653 4238 
L 1653 4122 
L 1578 4122 
Q 1413 4122 1325 4047 
Q 1238 3972 1238 3866 
Q 1238 3756 1375 3363 
L 2209 984 
L 2913 3006 
L 2788 3363 
L 2688 3647 
Q 2622 3803 2541 3922 
Q 2500 3981 2441 4022 
Q 2363 4078 2284 4103 
Q 2225 4122 2097 4122 
L 2097 4238 
L 3747 4238 
L 3747 4122 
L 3634 4122 
Q 3459 4122 3378 4047 
Q 3297 3972 3297 3844 
Q 3297 3684 3438 3288 
L 4250 984 
L 5056 3319 
Q 5194 3706 5194 3856 
Q 5194 3928 5148 3990 
Q 5103 4053 5034 4078 
Q 4916 4122 4725 4122 
L 4725 4238 
L 5991 4238 
z
" transform="scale(0.015625)"/>
      </defs>
      <use xlink:href="#TimesNewRomanPSMT-4c"/>
      <use xlink:href="#TimesNewRomanPSMT-6f" x="61.083984"/>
      <use xlink:href="#TimesNewRomanPSMT-61" x="111.083984"/>
      <use xlink:href="#TimesNewRomanPSMT-64" x="155.46875"/>
      <use xlink:href="#TimesNewRomanPSMT-20" x="205.46875"/>
      <use xlink:href="#TimesNewRomanPSMT-5b" x="230.46875"/>
      <use xlink:href="#TimesNewRomanPSMT-6b" x="263.769531"/>
      <use xlink:href="#TimesNewRomanPSMT-57" x="313.769531"/>
      <use xlink:href="#TimesNewRomanPSMT-5d" x="408.154297"/>
     </g>
    </g>
   </g>
   <g id="PolyCollection_1"/>
   <g id="line2d_11">
    <path d="M 41.634936 173.492945 
L 42.306955 173.492945 
L 42.642965 161.73412 
L 43.650993 161.73412 
L 43.987003 168.789415 
L 44.323012 173.492945 
L 47.011089 173.492945 
L 47.347098 168.789415 
L 47.683108 161.73412 
L 48.019117 157.338298 
L 48.355127 137.304337 
L 48.691136 131.677684 
L 49.027146 142.66724 
L 49.363155 143.491457 
L 49.699165 142.832083 
L 50.035174 173.492945 
L 52.72325 173.492945 
L 53.05926 161.73412 
L 54.067289 161.73412 
L 54.403298 168.789415 
L 54.739308 173.492945 
L 61.795508 173.492945 
L 62.131517 168.789415 
L 62.467527 161.73412 
L 63.475555 161.73412 
L 63.811565 173.492945 
L 66.163631 173.492945 
L 66.499641 171.14118 
L 66.83565 161.73412 
L 67.843679 161.73412 
L 68.179688 171.14118 
L 68.515698 173.492945 
L 70.867765 173.492945 
L 71.203774 161.73412 
L 72.211803 161.73412 
L 72.547812 168.789415 
L 72.883822 173.492945 
L 77.251946 173.492945 
L 77.587955 168.789415 
L 77.923965 161.73412 
L 78.931993 161.73412 
L 79.268003 173.492945 
L 81.620069 173.492945 
L 81.956079 171.14118 
L 82.292088 161.73412 
L 83.300117 161.73412 
L 83.636126 171.14118 
L 83.972136 173.492945 
L 89.684298 173.492945 
L 90.020307 168.789415 
L 90.356317 161.73412 
L 91.364346 161.73412 
L 91.700355 173.492945 
L 93.380403 173.492945 
L 93.716412 170.965348 
L 94.052422 170.965348 
L 94.388431 168.327854 
L 94.724441 161.844016 
L 95.06045 163.822136 
L 95.39646 162.4924 
L 95.732469 155.78877 
L 96.068479 141.952919 
L 97.076507 141.952919 
L 97.748526 155.843718 
L 98.084536 156.239342 
L 99.764584 156.239342 
L 100.100593 155.579969 
L 101.108622 143.326613 
L 101.444631 143.326613 
L 102.11665 153.107319 
L 102.45266 155.085439 
L 102.788669 160.25053 
L 103.124679 155.634916 
L 104.132707 155.634916 
L 104.468717 149.810452 
L 104.804726 155.085439 
L 105.140736 148.030144 
L 105.476745 143.326613 
L 105.812755 143.326613 
L 106.148764 146.041034 
L 106.484774 154.777731 
L 106.820784 154.206274 
L 107.156793 154.206274 
L 107.492803 32.606834 
L 107.828812 37.442238 
L 108.164822 28.375855 
L 108.500831 53.563918 
L 108.836841 47.772421 
L 109.17285 67.11404 
L 109.844869 73.290171 
L 110.180879 61.43244 
L 110.516888 71.125229 
L 110.852898 32.507928 
L 111.188907 67.993205 
L 111.524917 79.905884 
L 111.860926 78.982761 
L 112.196936 71.531842 
L 112.532945 115.775796 
L 112.868955 129.974303 
L 113.204964 123.160778 
L 113.540974 122.281613 
L 114.212993 144.15083 
L 114.549003 127.446705 
L 115.893041 109.533728 
L 116.22905 114.698819 
L 116.56506 123.490464 
L 116.901069 126.787331 
L 117.237079 126.215874 
L 117.573088 124.710305 
L 117.909098 127.831339 
L 118.245107 69.169088 
L 118.581117 80.686143 
L 118.917126 107.390764 
L 119.253136 110.797527 
L 119.589145 111.676691 
L 119.925155 55.717871 
L 120.261164 129.743522 
L 120.597174 129.314929 
L 120.933183 132.633775 
L 121.605203 129.677584 
L 121.941212 130.688624 
L 122.277222 115.083454 
L 122.613231 129.369877 
L 122.949241 129.369877 
L 123.28525 119.567193 
L 123.62126 114.42408 
L 123.957269 115.083454 
L 124.293279 115.369182 
L 124.629288 118.940788 
L 124.965298 135.688872 
L 125.301307 100.983853 
L 125.637317 151.019303 
L 125.973326 147.502645 
L 126.309336 142.194689 
L 126.981355 117.446208 
L 127.317364 119.050684 
L 127.653374 117.885791 
L 127.989383 118.369331 
L 128.325393 134.578927 
L 128.661403 131.238101 
L 128.997412 132.227162 
L 129.333422 133.820647 
L 129.669431 126.281812 
L 130.005441 113.544916 
L 130.34145 116.545065 
L 130.67746 47.277891 
L 131.013469 131.721642 
L 131.349479 142.227658 
L 131.685488 134.688822 
L 132.021498 138.579125 
L 132.357507 152.063311 
L 132.693517 155.843718 
L 133.029526 154.898616 
L 133.701545 155.250282 
L 134.037555 173.492945 
L 134.373564 171.14118 
L 134.709574 161.73412 
L 135.717602 161.73412 
L 136.053612 171.14118 
L 136.389622 173.492945 
L 137.73366 173.492945 
L 137.73366 173.492945 
" clip-path="url(#p2c06ca576d)" style="fill: none; stroke: #1f77b4; stroke-width: 1.5; stroke-linecap: round"/>
   </g>
   <g id="patch_3">
    <path d="M 36.83 180.7488 
L 36.83 21.12 
" style="fill: none; stroke: #cccccc; stroke-width: 0.8; stroke-linejoin: miter; stroke-linecap: square"/>
   </g>
   <g id="patch_4">
    <path d="M 142.538596 180.7488 
L 142.538596 21.12 
" style="fill: none; stroke: #cccccc; stroke-width: 0.8; stroke-linejoin: miter; stroke-linecap: square"/>
   </g>
   <g id="patch_5">
    <path d="M 36.83 180.7488 
L 142.538596 180.7488 
" style="fill: none; stroke: #cccccc; stroke-width: 0.8; stroke-linejoin: miter; stroke-linecap: square"/>
   </g>
   <g id="patch_6">
    <path d="M 36.83 21.12 
L 142.538596 21.12 
" style="fill: none; stroke: #cccccc; stroke-width: 0.8; stroke-linejoin: miter; stroke-linecap: square"/>
   </g>
   <g id="text_13">
    <!-- (a) -->
    <g style="fill: #262626" transform="translate(128.374416 204.578158) scale(0.08 -0.08)">
     <defs>
      <path id="TimesNewRomanPSMT-28" d="M 1988 -1253 
L 1988 -1369 
Q 1516 -1131 1200 -813 
Q 750 -359 506 256 
Q 263 872 263 1534 
Q 263 2503 741 3301 
Q 1219 4100 1988 4444 
L 1988 4313 
Q 1603 4100 1356 3731 
Q 1109 3363 987 2797 
Q 866 2231 866 1616 
Q 866 947 969 400 
Q 1050 -31 1165 -292 
Q 1281 -553 1476 -793 
Q 1672 -1034 1988 -1253 
z
" transform="scale(0.015625)"/>
      <path id="TimesNewRomanPSMT-29" d="M 144 4313 
L 144 4444 
Q 619 4209 934 3891 
Q 1381 3434 1625 2820 
Q 1869 2206 1869 1541 
Q 1869 572 1392 -226 
Q 916 -1025 144 -1369 
L 144 -1253 
Q 528 -1038 776 -670 
Q 1025 -303 1145 264 
Q 1266 831 1266 1447 
Q 1266 2113 1163 2663 
Q 1084 3094 967 3353 
Q 850 3613 656 3853 
Q 463 4094 144 4313 
z
" transform="scale(0.015625)"/>
     </defs>
     <use xlink:href="#TimesNewRomanPSMT-28"/>
     <use xlink:href="#TimesNewRomanPSMT-61" x="33.300781"/>
     <use xlink:href="#TimesNewRomanPSMT-29" x="77.685547"/>
    </g>
   </g>
   <g id="text_14">
    <!-- Acive Power Load -->
    <g style="fill: #262626" transform="translate(53.695548 15.12) scale(0.096 -0.096)">
     <defs>
      <path id="TimesNewRomanPSMT-41" d="M 2928 1419 
L 1288 1419 
L 1000 750 
Q 894 503 894 381 
Q 894 284 986 211 
Q 1078 138 1384 116 
L 1384 0 
L 50 0 
L 50 116 
Q 316 163 394 238 
Q 553 388 747 847 
L 2238 4334 
L 2347 4334 
L 3822 809 
Q 4000 384 4145 257 
Q 4291 131 4550 116 
L 4550 0 
L 2878 0 
L 2878 116 
Q 3131 128 3220 200 
Q 3309 272 3309 375 
Q 3309 513 3184 809 
L 2928 1419 
z
M 2841 1650 
L 2122 3363 
L 1384 1650 
L 2841 1650 
z
" transform="scale(0.015625)"/>
      <path id="TimesNewRomanPSMT-63" d="M 2631 1088 
Q 2516 522 2178 217 
Q 1841 -88 1431 -88 
Q 944 -88 581 321 
Q 219 731 219 1428 
Q 219 2103 620 2525 
Q 1022 2947 1584 2947 
Q 2006 2947 2278 2723 
Q 2550 2500 2550 2259 
Q 2550 2141 2473 2067 
Q 2397 1994 2259 1994 
Q 2075 1994 1981 2113 
Q 1928 2178 1911 2362 
Q 1894 2547 1784 2644 
Q 1675 2738 1481 2738 
Q 1169 2738 978 2506 
Q 725 2200 725 1697 
Q 725 1184 976 792 
Q 1228 400 1656 400 
Q 1963 400 2206 609 
Q 2378 753 2541 1131 
L 2631 1088 
z
" transform="scale(0.015625)"/>
      <path id="TimesNewRomanPSMT-76" d="M 53 2863 
L 1400 2863 
L 1400 2747 
L 1313 2747 
Q 1191 2747 1127 2687 
Q 1063 2628 1063 2528 
Q 1063 2419 1128 2269 
L 1794 688 
L 2463 2328 
Q 2534 2503 2534 2594 
Q 2534 2638 2509 2666 
Q 2475 2713 2422 2730 
Q 2369 2747 2206 2747 
L 2206 2863 
L 3141 2863 
L 3141 2747 
Q 2978 2734 2916 2681 
Q 2806 2588 2719 2369 
L 1703 -88 
L 1575 -88 
L 553 2328 
Q 484 2497 421 2570 
Q 359 2644 263 2694 
Q 209 2722 53 2747 
L 53 2863 
z
" transform="scale(0.015625)"/>
      <path id="TimesNewRomanPSMT-50" d="M 1313 1984 
L 1313 750 
Q 1313 350 1400 253 
Q 1519 116 1759 116 
L 1922 116 
L 1922 0 
L 106 0 
L 106 116 
L 266 116 
Q 534 116 650 291 
Q 713 388 713 750 
L 713 3488 
Q 713 3888 628 3984 
Q 506 4122 266 4122 
L 106 4122 
L 106 4238 
L 1659 4238 
Q 2228 4238 2556 4120 
Q 2884 4003 3109 3725 
Q 3334 3447 3334 3066 
Q 3334 2547 2992 2222 
Q 2650 1897 2025 1897 
Q 1872 1897 1694 1919 
Q 1516 1941 1313 1984 
z
M 1313 2163 
Q 1478 2131 1606 2115 
Q 1734 2100 1825 2100 
Q 2150 2100 2386 2351 
Q 2622 2603 2622 3003 
Q 2622 3278 2509 3514 
Q 2397 3750 2190 3867 
Q 1984 3984 1722 3984 
Q 1563 3984 1313 3925 
L 1313 2163 
z
" transform="scale(0.015625)"/>
      <path id="TimesNewRomanPSMT-77" d="M 41 2863 
L 1241 2863 
L 1241 2747 
Q 1075 2734 1023 2687 
Q 972 2641 972 2553 
Q 972 2456 1025 2319 
L 1638 672 
L 2253 2013 
L 2091 2434 
Q 2016 2622 1894 2694 
Q 1825 2738 1638 2747 
L 1638 2863 
L 3000 2863 
L 3000 2747 
Q 2775 2738 2681 2666 
Q 2619 2616 2619 2506 
Q 2619 2444 2644 2378 
L 3294 734 
L 3897 2319 
Q 3959 2488 3959 2588 
Q 3959 2647 3898 2694 
Q 3838 2741 3659 2747 
L 3659 2863 
L 4563 2863 
L 4563 2747 
Q 4291 2706 4163 2378 
L 3206 -88 
L 3078 -88 
L 2363 1741 
L 1528 -88 
L 1413 -88 
L 494 2319 
Q 403 2547 315 2626 
Q 228 2706 41 2747 
L 41 2863 
z
" transform="scale(0.015625)"/>
      <path id="TimesNewRomanPSMT-72" d="M 1038 2947 
L 1038 2303 
Q 1397 2947 1775 2947 
Q 1947 2947 2059 2842 
Q 2172 2738 2172 2600 
Q 2172 2478 2090 2393 
Q 2009 2309 1897 2309 
Q 1788 2309 1652 2417 
Q 1516 2525 1450 2525 
Q 1394 2525 1328 2463 
Q 1188 2334 1038 2041 
L 1038 669 
Q 1038 431 1097 309 
Q 1138 225 1241 169 
Q 1344 113 1538 113 
L 1538 0 
L 72 0 
L 72 113 
Q 291 113 397 181 
Q 475 231 506 341 
Q 522 394 522 644 
L 522 1753 
Q 522 2253 501 2348 
Q 481 2444 426 2487 
Q 372 2531 291 2531 
Q 194 2531 72 2484 
L 41 2597 
L 906 2947 
L 1038 2947 
z
" transform="scale(0.015625)"/>
     </defs>
     <use xlink:href="#TimesNewRomanPSMT-41"/>
     <use xlink:href="#TimesNewRomanPSMT-63" x="72.216797"/>
     <use xlink:href="#TimesNewRomanPSMT-69" x="116.601562"/>
     <use xlink:href="#TimesNewRomanPSMT-76" x="144.384766"/>
     <use xlink:href="#TimesNewRomanPSMT-65" x="194.384766"/>
     <use xlink:href="#TimesNewRomanPSMT-20" x="238.769531"/>
     <use xlink:href="#TimesNewRomanPSMT-50" x="263.769531"/>
     <use xlink:href="#TimesNewRomanPSMT-6f" x="319.384766"/>
     <use xlink:href="#TimesNewRomanPSMT-77" x="369.384766"/>
     <use xlink:href="#TimesNewRomanPSMT-65" x="441.601562"/>
     <use xlink:href="#TimesNewRomanPSMT-72" x="485.986328"/>
     <use xlink:href="#TimesNewRomanPSMT-20" x="519.287109"/>
     <use xlink:href="#TimesNewRomanPSMT-4c" x="544.287109"/>
     <use xlink:href="#TimesNewRomanPSMT-6f" x="605.371094"/>
     <use xlink:href="#TimesNewRomanPSMT-61" x="655.371094"/>
     <use xlink:href="#TimesNewRomanPSMT-64" x="699.755859"/>
    </g>
   </g>
  </g>
  <g id="axes_2">
   <g id="patch_7">
    <path d="M 185.12 180.7488 
L 290.828596 180.7488 
L 290.828596 21.12 
L 185.12 21.12 
z
" style="fill: #ffffff"/>
   </g>
   <g id="matplotlib.axis_3">
    <g id="xtick_5">
     <g id="line2d_12">
      <path d="M 189.924936 180.7488 
L 189.924936 21.12 
" clip-path="url(#pa99821bded)" style="fill: none; stroke: #cccccc; stroke-width: 0.8; stroke-linecap: round"/>
     </g>
     <g id="text_15">
      <!-- 0 -->
      <g style="fill: #262626" transform="translate(187.924936 193.3038) scale(0.08 -0.08)">
       <use xlink:href="#TimesNewRomanPSMT-30"/>
      </g>
     </g>
    </g>
    <g id="xtick_6">
     <g id="line2d_13">
      <path d="M 223.525888 180.7488 
L 223.525888 21.12 
" clip-path="url(#pa99821bded)" style="fill: none; stroke: #cccccc; stroke-width: 0.8; stroke-linecap: round"/>
     </g>
     <g id="text_16">
      <!-- 100 -->
      <g style="fill: #262626" transform="translate(217.525888 193.3038) scale(0.08 -0.08)">
       <use xlink:href="#TimesNewRomanPSMT-31"/>
       <use xlink:href="#TimesNewRomanPSMT-30" x="50"/>
       <use xlink:href="#TimesNewRomanPSMT-30" x="100"/>
      </g>
     </g>
    </g>
    <g id="xtick_7">
     <g id="line2d_14">
      <path d="M 257.126841 180.7488 
L 257.126841 21.12 
" clip-path="url(#pa99821bded)" style="fill: none; stroke: #cccccc; stroke-width: 0.8; stroke-linecap: round"/>
     </g>
     <g id="text_17">
      <!-- 200 -->
      <g style="fill: #262626" transform="translate(251.126841 193.3038) scale(0.08 -0.08)">
       <use xlink:href="#TimesNewRomanPSMT-32"/>
       <use xlink:href="#TimesNewRomanPSMT-30" x="50"/>
       <use xlink:href="#TimesNewRomanPSMT-30" x="100"/>
      </g>
     </g>
    </g>
    <g id="xtick_8">
     <g id="line2d_15">
      <path d="M 290.727793 180.7488 
L 290.727793 21.12 
" clip-path="url(#pa99821bded)" style="fill: none; stroke: #cccccc; stroke-width: 0.8; stroke-linecap: round"/>
     </g>
     <g id="text_18">
      <!-- 300 -->
      <g style="fill: #262626" transform="translate(284.727793 193.3038) scale(0.08 -0.08)">
       <use xlink:href="#TimesNewRomanPSMT-33"/>
       <use xlink:href="#TimesNewRomanPSMT-30" x="50"/>
       <use xlink:href="#TimesNewRomanPSMT-30" x="100"/>
      </g>
     </g>
    </g>
    <g id="text_19">
     <!-- Sample [5 mins] -->
     <g style="fill: #262626" transform="translate(211.533048 204.57005) scale(0.08 -0.08)">
      <use xlink:href="#TimesNewRomanPSMT-53"/>
      <use xlink:href="#TimesNewRomanPSMT-61" x="55.615234"/>
      <use xlink:href="#TimesNewRomanPSMT-6d" x="100"/>
      <use xlink:href="#TimesNewRomanPSMT-70" x="177.783203"/>
      <use xlink:href="#TimesNewRomanPSMT-6c" x="227.783203"/>
      <use xlink:href="#TimesNewRomanPSMT-65" x="255.566406"/>
      <use xlink:href="#TimesNewRomanPSMT-20" x="299.951172"/>
      <use xlink:href="#TimesNewRomanPSMT-5b" x="324.951172"/>
      <use xlink:href="#TimesNewRomanPSMT-35" x="358.251953"/>
      <use xlink:href="#TimesNewRomanPSMT-20" x="408.251953"/>
      <use xlink:href="#TimesNewRomanPSMT-6d" x="433.251953"/>
      <use xlink:href="#TimesNewRomanPSMT-69" x="511.035156"/>
      <use xlink:href="#TimesNewRomanPSMT-6e" x="538.818359"/>
      <use xlink:href="#TimesNewRomanPSMT-73" x="588.818359"/>
      <use xlink:href="#TimesNewRomanPSMT-5d" x="627.734375"/>
     </g>
    </g>
   </g>
   <g id="matplotlib.axis_4">
    <g id="ytick_7">
     <g id="line2d_16">
      <path d="M 185.12 173.492945 
L 290.828596 173.492945 
" clip-path="url(#pa99821bded)" style="fill: none; stroke: #cccccc; stroke-width: 0.8; stroke-linecap: round"/>
     </g>
     <g id="text_20">
      <!-- 0.0 -->
      <g style="fill: #262626" transform="translate(168.12 176.270445) scale(0.08 -0.08)">
       <use xlink:href="#TimesNewRomanPSMT-30"/>
       <use xlink:href="#TimesNewRomanPSMT-2e" x="50"/>
       <use xlink:href="#TimesNewRomanPSMT-30" x="75"/>
      </g>
     </g>
    </g>
    <g id="ytick_8">
     <g id="line2d_17">
      <path d="M 185.12 155.010772 
L 290.828596 155.010772 
" clip-path="url(#pa99821bded)" style="fill: none; stroke: #cccccc; stroke-width: 0.8; stroke-linecap: round"/>
     </g>
     <g id="text_21">
      <!-- 0.2 -->
      <g style="fill: #262626" transform="translate(168.12 157.788272) scale(0.08 -0.08)">
       <use xlink:href="#TimesNewRomanPSMT-30"/>
       <use xlink:href="#TimesNewRomanPSMT-2e" x="50"/>
       <use xlink:href="#TimesNewRomanPSMT-32" x="75"/>
      </g>
     </g>
    </g>
    <g id="ytick_9">
     <g id="line2d_18">
      <path d="M 185.12 136.528598 
L 290.828596 136.528598 
" clip-path="url(#pa99821bded)" style="fill: none; stroke: #cccccc; stroke-width: 0.8; stroke-linecap: round"/>
     </g>
     <g id="text_22">
      <!-- 0.4 -->
      <g style="fill: #262626" transform="translate(168.12 139.306098) scale(0.08 -0.08)">
       <defs>
        <path id="TimesNewRomanPSMT-34" d="M 2978 1563 
L 2978 1119 
L 2409 1119 
L 2409 0 
L 1894 0 
L 1894 1119 
L 100 1119 
L 100 1519 
L 2066 4325 
L 2409 4325 
L 2409 1563 
L 2978 1563 
z
M 1894 1563 
L 1894 3666 
L 406 1563 
L 1894 1563 
z
" transform="scale(0.015625)"/>
       </defs>
       <use xlink:href="#TimesNewRomanPSMT-30"/>
       <use xlink:href="#TimesNewRomanPSMT-2e" x="50"/>
       <use xlink:href="#TimesNewRomanPSMT-34" x="75"/>
      </g>
     </g>
    </g>
    <g id="ytick_10">
     <g id="line2d_19">
      <path d="M 185.12 118.046425 
L 290.828596 118.046425 
" clip-path="url(#pa99821bded)" style="fill: none; stroke: #cccccc; stroke-width: 0.8; stroke-linecap: round"/>
     </g>
     <g id="text_23">
      <!-- 0.6 -->
      <g style="fill: #262626" transform="translate(168.12 120.823925) scale(0.08 -0.08)">
       <defs>
        <path id="TimesNewRomanPSMT-36" d="M 2869 4325 
L 2869 4209 
Q 2456 4169 2195 4045 
Q 1934 3922 1679 3669 
Q 1425 3416 1258 3105 
Q 1091 2794 978 2366 
Q 1428 2675 1881 2675 
Q 2316 2675 2634 2325 
Q 2953 1975 2953 1425 
Q 2953 894 2631 456 
Q 2244 -75 1606 -75 
Q 1172 -75 869 213 
Q 275 772 275 1663 
Q 275 2231 503 2743 
Q 731 3256 1154 3653 
Q 1578 4050 1965 4187 
Q 2353 4325 2688 4325 
L 2869 4325 
z
M 925 2138 
Q 869 1716 869 1456 
Q 869 1156 980 804 
Q 1091 453 1309 247 
Q 1469 100 1697 100 
Q 1969 100 2183 356 
Q 2397 613 2397 1088 
Q 2397 1622 2184 2012 
Q 1972 2403 1581 2403 
Q 1463 2403 1327 2353 
Q 1191 2303 925 2138 
z
" transform="scale(0.015625)"/>
       </defs>
       <use xlink:href="#TimesNewRomanPSMT-30"/>
       <use xlink:href="#TimesNewRomanPSMT-2e" x="50"/>
       <use xlink:href="#TimesNewRomanPSMT-36" x="75"/>
      </g>
     </g>
    </g>
    <g id="ytick_11">
     <g id="line2d_20">
      <path d="M 185.12 99.564251 
L 290.828596 99.564251 
" clip-path="url(#pa99821bded)" style="fill: none; stroke: #cccccc; stroke-width: 0.8; stroke-linecap: round"/>
     </g>
     <g id="text_24">
      <!-- 0.8 -->
      <g style="fill: #262626" transform="translate(168.12 102.341751) scale(0.08 -0.08)">
       <defs>
        <path id="TimesNewRomanPSMT-38" d="M 1228 2134 
Q 725 2547 579 2797 
Q 434 3047 434 3316 
Q 434 3728 753 4026 
Q 1072 4325 1600 4325 
Q 2113 4325 2425 4047 
Q 2738 3769 2738 3413 
Q 2738 3175 2569 2928 
Q 2400 2681 1866 2347 
Q 2416 1922 2594 1678 
Q 2831 1359 2831 1006 
Q 2831 559 2490 242 
Q 2150 -75 1597 -75 
Q 994 -75 656 303 
Q 388 606 388 966 
Q 388 1247 577 1523 
Q 766 1800 1228 2134 
z
M 1719 2469 
Q 2094 2806 2194 3001 
Q 2294 3197 2294 3444 
Q 2294 3772 2109 3958 
Q 1925 4144 1606 4144 
Q 1288 4144 1088 3959 
Q 888 3775 888 3528 
Q 888 3366 970 3203 
Q 1053 3041 1206 2894 
L 1719 2469 
z
M 1375 2016 
Q 1116 1797 991 1539 
Q 866 1281 866 981 
Q 866 578 1086 336 
Q 1306 94 1647 94 
Q 1984 94 2187 284 
Q 2391 475 2391 747 
Q 2391 972 2272 1150 
Q 2050 1481 1375 2016 
z
" transform="scale(0.015625)"/>
       </defs>
       <use xlink:href="#TimesNewRomanPSMT-30"/>
       <use xlink:href="#TimesNewRomanPSMT-2e" x="50"/>
       <use xlink:href="#TimesNewRomanPSMT-38" x="75"/>
      </g>
     </g>
    </g>
    <g id="ytick_12">
     <g id="line2d_21">
      <path d="M 185.12 81.082078 
L 290.828596 81.082078 
" clip-path="url(#pa99821bded)" style="fill: none; stroke: #cccccc; stroke-width: 0.8; stroke-linecap: round"/>
     </g>
     <g id="text_25">
      <!-- 1.0 -->
      <g style="fill: #262626" transform="translate(168.12 83.859578) scale(0.08 -0.08)">
       <use xlink:href="#TimesNewRomanPSMT-31"/>
       <use xlink:href="#TimesNewRomanPSMT-2e" x="50"/>
       <use xlink:href="#TimesNewRomanPSMT-30" x="75"/>
      </g>
     </g>
    </g>
    <g id="ytick_13">
     <g id="line2d_22">
      <path d="M 185.12 62.599904 
L 290.828596 62.599904 
" clip-path="url(#pa99821bded)" style="fill: none; stroke: #cccccc; stroke-width: 0.8; stroke-linecap: round"/>
     </g>
     <g id="text_26">
      <!-- 1.2 -->
      <g style="fill: #262626" transform="translate(168.12 65.377404) scale(0.08 -0.08)">
       <use xlink:href="#TimesNewRomanPSMT-31"/>
       <use xlink:href="#TimesNewRomanPSMT-2e" x="50"/>
       <use xlink:href="#TimesNewRomanPSMT-32" x="75"/>
      </g>
     </g>
    </g>
    <g id="ytick_14">
     <g id="line2d_23">
      <path d="M 185.12 44.11773 
L 290.828596 44.11773 
" clip-path="url(#pa99821bded)" style="fill: none; stroke: #cccccc; stroke-width: 0.8; stroke-linecap: round"/>
     </g>
     <g id="text_27">
      <!-- 1.4 -->
      <g style="fill: #262626" transform="translate(168.12 46.89523) scale(0.08 -0.08)">
       <use xlink:href="#TimesNewRomanPSMT-31"/>
       <use xlink:href="#TimesNewRomanPSMT-2e" x="50"/>
       <use xlink:href="#TimesNewRomanPSMT-34" x="75"/>
      </g>
     </g>
    </g>
    <g id="ytick_15">
     <g id="line2d_24">
      <path d="M 185.12 25.635557 
L 290.828596 25.635557 
" clip-path="url(#pa99821bded)" style="fill: none; stroke: #cccccc; stroke-width: 0.8; stroke-linecap: round"/>
     </g>
     <g id="text_28">
      <!-- 1.6 -->
      <g style="fill: #262626" transform="translate(168.12 28.413057) scale(0.08 -0.08)">
       <use xlink:href="#TimesNewRomanPSMT-31"/>
       <use xlink:href="#TimesNewRomanPSMT-2e" x="50"/>
       <use xlink:href="#TimesNewRomanPSMT-36" x="75"/>
      </g>
     </g>
    </g>
    <g id="text_29">
     <!-- Generation [kW] -->
     <g style="fill: #262626" transform="translate(162.40875 128.143775) rotate(-90) scale(0.08 -0.08)">
      <defs>
       <path id="TimesNewRomanPSMT-47" d="M 3928 4334 
L 4038 2997 
L 3928 2997 
Q 3763 3497 3500 3750 
Q 3122 4116 2528 4116 
Q 1719 4116 1297 3475 
Q 944 2934 944 2188 
Q 944 1581 1178 1081 
Q 1413 581 1792 348 
Q 2172 116 2572 116 
Q 2806 116 3025 175 
Q 3244 234 3447 350 
L 3447 1575 
Q 3447 1894 3398 1992 
Q 3350 2091 3248 2142 
Q 3147 2194 2891 2194 
L 2891 2313 
L 4531 2313 
L 4531 2194 
L 4453 2194 
Q 4209 2194 4119 2031 
Q 4056 1916 4056 1575 
L 4056 278 
Q 3697 84 3347 -6 
Q 2997 -97 2569 -97 
Q 1341 -97 703 691 
Q 225 1281 225 2053 
Q 225 2613 494 3125 
Q 813 3734 1369 4063 
Q 1834 4334 2469 4334 
Q 2700 4334 2889 4296 
Q 3078 4259 3425 4131 
Q 3600 4066 3659 4066 
Q 3719 4066 3761 4120 
Q 3803 4175 3813 4334 
L 3928 4334 
z
" transform="scale(0.015625)"/>
       <path id="TimesNewRomanPSMT-74" d="M 1031 3803 
L 1031 2863 
L 1700 2863 
L 1700 2644 
L 1031 2644 
L 1031 788 
Q 1031 509 1111 412 
Q 1191 316 1316 316 
Q 1419 316 1516 380 
Q 1613 444 1666 569 
L 1788 569 
Q 1678 263 1478 108 
Q 1278 -47 1066 -47 
Q 922 -47 784 33 
Q 647 113 581 261 
Q 516 409 516 719 
L 516 2644 
L 63 2644 
L 63 2747 
Q 234 2816 414 2980 
Q 594 3144 734 3369 
Q 806 3488 934 3803 
L 1031 3803 
z
" transform="scale(0.015625)"/>
      </defs>
      <use xlink:href="#TimesNewRomanPSMT-47"/>
      <use xlink:href="#TimesNewRomanPSMT-65" x="72.216797"/>
      <use xlink:href="#TimesNewRomanPSMT-6e" x="116.601562"/>
      <use xlink:href="#TimesNewRomanPSMT-65" x="166.601562"/>
      <use xlink:href="#TimesNewRomanPSMT-72" x="210.986328"/>
      <use xlink:href="#TimesNewRomanPSMT-61" x="244.287109"/>
      <use xlink:href="#TimesNewRomanPSMT-74" x="288.671875"/>
      <use xlink:href="#TimesNewRomanPSMT-69" x="316.455078"/>
      <use xlink:href="#TimesNewRomanPSMT-6f" x="344.238281"/>
      <use xlink:href="#TimesNewRomanPSMT-6e" x="394.238281"/>
      <use xlink:href="#TimesNewRomanPSMT-20" x="444.238281"/>
      <use xlink:href="#TimesNewRomanPSMT-5b" x="469.238281"/>
      <use xlink:href="#TimesNewRomanPSMT-6b" x="502.539062"/>
      <use xlink:href="#TimesNewRomanPSMT-57" x="552.539062"/>
      <use xlink:href="#TimesNewRomanPSMT-5d" x="646.923828"/>
     </g>
    </g>
   </g>
   <g id="PolyCollection_2"/>
   <g id="line2d_25">
    <path d="M 189.924936 173.492945 
L 204.709355 173.449766 
L 205.045365 173.322389 
L 205.381374 173.027858 
L 206.053393 172.041362 
L 207.061422 172.025455 
L 207.397431 171.55334 
L 207.733441 170.829582 
L 208.06945 170.430937 
L 208.40546 170.236198 
L 210.421517 168.004753 
L 211.093536 166.548587 
L 211.429546 164.099627 
L 211.765555 160.117404 
L 212.101565 158.500369 
L 212.437574 160.76598 
L 213.109593 156.457818 
L 213.445603 154.931498 
L 213.781612 145.30722 
L 214.117622 142.496423 
L 214.453631 126.622616 
L 214.789641 135.703962 
L 215.12565 137.281762 
L 215.46166 134.365687 
L 215.797669 141.636817 
L 216.133679 138.75463 
L 216.469688 127.518595 
L 216.805698 129.632183 
L 217.141707 138.380186 
L 217.813727 117.860169 
L 218.149736 119.317386 
L 218.485746 110.267788 
L 218.821755 104.300869 
L 219.157765 100.764346 
L 219.493774 92.515238 
L 219.829784 94.712496 
L 220.165793 84.483939 
L 220.501803 103.782652 
L 220.837812 145.483952 
L 221.173822 101.918628 
L 221.509831 93.66001 
L 222.51786 90.715549 
L 222.853869 88.776491 
L 223.189879 104.797435 
L 223.525888 82.08576 
L 223.861898 130.361207 
L 224.197907 159.009094 
L 224.869927 77.559565 
L 225.205936 75.081797 
L 225.877955 71.961379 
L 226.885984 66.394713 
L 227.221993 64.678952 
L 227.558003 66.317003 
L 227.894012 59.355583 
L 228.230022 56.368872 
L 228.566031 56.734642 
L 228.902041 62.693975 
L 229.23805 44.71813 
L 229.57406 104.314052 
L 229.910069 82.547436 
L 230.246079 41.871291 
L 230.582088 57.217697 
L 230.918098 94.390184 
L 231.254107 116.856738 
L 231.590117 40.398998 
L 231.926126 53.283178 
L 232.262136 94.862185 
L 232.598146 36.733256 
L 233.270165 59.849526 
L 233.606174 36.78146 
L 233.942184 80.852709 
L 234.278193 145.779885 
L 234.614203 147.501983 
L 234.950212 65.729578 
L 235.286222 40.720531 
L 235.622231 38.752193 
L 235.958241 34.967481 
L 236.29425 35.664716 
L 236.63026 46.903126 
L 236.966269 138.520511 
L 237.638288 93.743691 
L 237.974298 125.318162 
L 238.310307 84.501573 
L 238.646317 60.756779 
L 238.982326 119.81209 
L 239.318336 115.839842 
L 239.654346 123.378485 
L 240.326365 88.392044 
L 240.662374 40.232283 
L 240.998384 57.054002 
L 241.334393 124.850706 
L 241.670403 136.743807 
L 242.006412 92.796788 
L 242.342422 28.375855 
L 243.014441 43.133268 
L 243.35045 42.324649 
L 243.68646 45.556371 
L 244.022469 34.656647 
L 244.358479 36.886874 
L 244.694488 46.304913 
L 245.030498 76.402787 
L 245.366507 46.586031 
L 245.702517 46.615709 
L 246.038526 51.391934 
L 246.374536 49.79651 
L 246.710545 78.496434 
L 247.046555 97.451342 
L 247.382565 53.60843 
L 247.718574 52.356506 
L 248.054584 64.891523 
L 248.390593 49.487119 
L 248.726603 79.117298 
L 249.062612 84.219235 
L 249.398622 93.092353 
L 249.734631 75.247994 
L 250.070641 79.299903 
L 250.40665 136.49816 
L 250.74266 143.383152 
L 251.078669 144.273141 
L 251.414679 137.62283 
L 252.086698 77.036964 
L 252.758717 116.6722 
L 253.094726 121.896744 
L 253.430736 109.616727 
L 253.766745 76.185238 
L 254.102755 82.305211 
L 254.438764 112.555427 
L 254.774774 118.100606 
L 255.110784 113.453426 
L 255.446793 102.818916 
L 255.782803 101.322279 
L 256.118812 129.46067 
L 256.454822 111.262735 
L 256.790831 140.765793 
L 257.126841 134.715565 
L 257.46285 135.997442 
L 257.79886 139.390337 
L 258.806888 157.744449 
L 259.142898 160.595684 
L 259.478907 161.453722 
L 259.814917 161.103737 
L 260.150926 159.864655 
L 261.158955 152.851816 
L 261.494964 152.136183 
L 261.830974 152.796354 
L 262.166984 147.209884 
L 262.502993 144.896034 
L 262.839003 123.713468 
L 263.175012 131.228355 
L 263.511022 152.073601 
L 263.847031 153.286338 
L 264.183041 161.278863 
L 264.51905 164.258667 
L 264.85506 165.249883 
L 265.191069 163.891395 
L 265.527079 164.705199 
L 265.863088 164.99079 
L 266.199098 163.634639 
L 266.535107 164.978433 
L 266.871117 167.450222 
L 267.207126 168.864778 
L 267.879145 169.694618 
L 269.223183 172.452026 
L 269.559193 172.644314 
L 270.567222 172.66864 
L 270.903231 173.057311 
L 271.57525 173.171453 
L 272.247269 173.292369 
L 273.255298 173.492945 
L 286.02366 173.492945 
L 286.02366 173.492945 
" clip-path="url(#pa99821bded)" style="fill: none; stroke: #1f77b4; stroke-width: 1.5; stroke-linecap: round"/>
   </g>
   <g id="patch_8">
    <path d="M 185.12 180.7488 
L 185.12 21.12 
" style="fill: none; stroke: #cccccc; stroke-width: 0.8; stroke-linejoin: miter; stroke-linecap: square"/>
   </g>
   <g id="patch_9">
    <path d="M 290.828596 180.7488 
L 290.828596 21.12 
" style="fill: none; stroke: #cccccc; stroke-width: 0.8; stroke-linejoin: miter; stroke-linecap: square"/>
   </g>
   <g id="patch_10">
    <path d="M 185.12 180.7488 
L 290.828596 180.7488 
" style="fill: none; stroke: #cccccc; stroke-width: 0.8; stroke-linejoin: miter; stroke-linecap: square"/>
   </g>
   <g id="patch_11">
    <path d="M 185.12 21.12 
L 290.828596 21.12 
" style="fill: none; stroke: #cccccc; stroke-width: 0.8; stroke-linejoin: miter; stroke-linecap: square"/>
   </g>
   <g id="text_30">
    <!-- (b) -->
    <g style="fill: #262626" transform="translate(276.215666 204.578158) scale(0.08 -0.08)">
     <defs>
      <path id="TimesNewRomanPSMT-62" d="M 984 2369 
Q 1400 2947 1881 2947 
Q 2322 2947 2650 2570 
Q 2978 2194 2978 1541 
Q 2978 778 2472 313 
Q 2038 -88 1503 -88 
Q 1253 -88 995 3 
Q 738 94 469 275 
L 469 3241 
Q 469 3728 445 3840 
Q 422 3953 372 3993 
Q 322 4034 247 4034 
Q 159 4034 28 3984 
L -16 4094 
L 844 4444 
L 984 4444 
L 984 2369 
z
M 984 2169 
L 984 456 
Q 1144 300 1314 220 
Q 1484 141 1663 141 
Q 1947 141 2192 453 
Q 2438 766 2438 1363 
Q 2438 1913 2192 2208 
Q 1947 2503 1634 2503 
Q 1469 2503 1303 2419 
Q 1178 2356 984 2169 
z
" transform="scale(0.015625)"/>
     </defs>
     <use xlink:href="#TimesNewRomanPSMT-28"/>
     <use xlink:href="#TimesNewRomanPSMT-62" x="33.300781"/>
     <use xlink:href="#TimesNewRomanPSMT-29" x="83.300781"/>
    </g>
   </g>
   <g id="text_31">
    <!-- PV Generation -->
    <g style="fill: #262626" transform="translate(209.398548 15.12) scale(0.096 -0.096)">
     <defs>
      <path id="TimesNewRomanPSMT-56" d="M 4544 4238 
L 4544 4122 
Q 4319 4081 4203 3978 
Q 4038 3825 3909 3509 
L 2431 -97 
L 2316 -97 
L 728 3556 
Q 606 3838 556 3900 
Q 478 3997 364 4051 
Q 250 4106 56 4122 
L 56 4238 
L 1788 4238 
L 1788 4122 
Q 1494 4094 1406 4022 
Q 1319 3950 1319 3838 
Q 1319 3681 1463 3350 
L 2541 866 
L 3541 3319 
Q 3688 3681 3688 3822 
Q 3688 3913 3597 3995 
Q 3506 4078 3291 4113 
Q 3275 4116 3238 4122 
L 3238 4238 
L 4544 4238 
z
" transform="scale(0.015625)"/>
     </defs>
     <use xlink:href="#TimesNewRomanPSMT-50"/>
     <use xlink:href="#TimesNewRomanPSMT-56" x="55.615234"/>
     <use xlink:href="#TimesNewRomanPSMT-20" x="126.082031"/>
     <use xlink:href="#TimesNewRomanPSMT-47" x="151.082031"/>
     <use xlink:href="#TimesNewRomanPSMT-65" x="223.298828"/>
     <use xlink:href="#TimesNewRomanPSMT-6e" x="267.683594"/>
     <use xlink:href="#TimesNewRomanPSMT-65" x="317.683594"/>
     <use xlink:href="#TimesNewRomanPSMT-72" x="362.068359"/>
     <use xlink:href="#TimesNewRomanPSMT-61" x="395.369141"/>
     <use xlink:href="#TimesNewRomanPSMT-74" x="439.753906"/>
     <use xlink:href="#TimesNewRomanPSMT-69" x="467.537109"/>
     <use xlink:href="#TimesNewRomanPSMT-6f" x="495.320312"/>
     <use xlink:href="#TimesNewRomanPSMT-6e" x="545.320312"/>
    </g>
   </g>
  </g>
  <g id="axes_3">
   <g id="patch_12">
    <path d="M 333.41 180.7488 
L 439.118596 180.7488 
L 439.118596 21.12 
L 333.41 21.12 
z
" style="fill: #ffffff"/>
   </g>
   <g id="matplotlib.axis_5">
    <g id="xtick_9">
     <g id="line2d_26">
      <path d="M 338.214936 180.7488 
L 338.214936 21.12 
" clip-path="url(#p5b6b4ab3bc)" style="fill: none; stroke: #cccccc; stroke-width: 0.8; stroke-linecap: round"/>
     </g>
     <g id="text_32">
      <!-- 0 -->
      <g style="fill: #262626" transform="translate(336.214936 193.3038) scale(0.08 -0.08)">
       <use xlink:href="#TimesNewRomanPSMT-30"/>
      </g>
     </g>
    </g>
    <g id="xtick_10">
     <g id="line2d_27">
      <path d="M 371.815888 180.7488 
L 371.815888 21.12 
" clip-path="url(#p5b6b4ab3bc)" style="fill: none; stroke: #cccccc; stroke-width: 0.8; stroke-linecap: round"/>
     </g>
     <g id="text_33">
      <!-- 100 -->
      <g style="fill: #262626" transform="translate(365.815888 193.3038) scale(0.08 -0.08)">
       <use xlink:href="#TimesNewRomanPSMT-31"/>
       <use xlink:href="#TimesNewRomanPSMT-30" x="50"/>
       <use xlink:href="#TimesNewRomanPSMT-30" x="100"/>
      </g>
     </g>
    </g>
    <g id="xtick_11">
     <g id="line2d_28">
      <path d="M 405.416841 180.7488 
L 405.416841 21.12 
" clip-path="url(#p5b6b4ab3bc)" style="fill: none; stroke: #cccccc; stroke-width: 0.8; stroke-linecap: round"/>
     </g>
     <g id="text_34">
      <!-- 200 -->
      <g style="fill: #262626" transform="translate(399.416841 193.3038) scale(0.08 -0.08)">
       <use xlink:href="#TimesNewRomanPSMT-32"/>
       <use xlink:href="#TimesNewRomanPSMT-30" x="50"/>
       <use xlink:href="#TimesNewRomanPSMT-30" x="100"/>
      </g>
     </g>
    </g>
    <g id="xtick_12">
     <g id="line2d_29">
      <path d="M 439.017793 180.7488 
L 439.017793 21.12 
" clip-path="url(#p5b6b4ab3bc)" style="fill: none; stroke: #cccccc; stroke-width: 0.8; stroke-linecap: round"/>
     </g>
     <g id="text_35">
      <!-- 300 -->
      <g style="fill: #262626" transform="translate(433.017793 193.3038) scale(0.08 -0.08)">
       <use xlink:href="#TimesNewRomanPSMT-33"/>
       <use xlink:href="#TimesNewRomanPSMT-30" x="50"/>
       <use xlink:href="#TimesNewRomanPSMT-30" x="100"/>
      </g>
     </g>
    </g>
    <g id="text_36">
     <!-- Sample [5 mins] -->
     <g style="fill: #262626" transform="translate(359.823048 204.57005) scale(0.08 -0.08)">
      <use xlink:href="#TimesNewRomanPSMT-53"/>
      <use xlink:href="#TimesNewRomanPSMT-61" x="55.615234"/>
      <use xlink:href="#TimesNewRomanPSMT-6d" x="100"/>
      <use xlink:href="#TimesNewRomanPSMT-70" x="177.783203"/>
      <use xlink:href="#TimesNewRomanPSMT-6c" x="227.783203"/>
      <use xlink:href="#TimesNewRomanPSMT-65" x="255.566406"/>
      <use xlink:href="#TimesNewRomanPSMT-20" x="299.951172"/>
      <use xlink:href="#TimesNewRomanPSMT-5b" x="324.951172"/>
      <use xlink:href="#TimesNewRomanPSMT-35" x="358.251953"/>
      <use xlink:href="#TimesNewRomanPSMT-20" x="408.251953"/>
      <use xlink:href="#TimesNewRomanPSMT-6d" x="433.251953"/>
      <use xlink:href="#TimesNewRomanPSMT-69" x="511.035156"/>
      <use xlink:href="#TimesNewRomanPSMT-6e" x="538.818359"/>
      <use xlink:href="#TimesNewRomanPSMT-73" x="588.818359"/>
      <use xlink:href="#TimesNewRomanPSMT-5d" x="627.734375"/>
     </g>
    </g>
   </g>
   <g id="matplotlib.axis_6">
    <g id="ytick_16">
     <g id="line2d_30">
      <path d="M 333.41 173.492945 
L 439.118596 173.492945 
" clip-path="url(#p5b6b4ab3bc)" style="fill: none; stroke: #cccccc; stroke-width: 0.8; stroke-linecap: round"/>
     </g>
     <g id="text_37">
      <!-- 0 -->
      <g style="fill: #262626" transform="translate(322.41 176.270445) scale(0.08 -0.08)">
       <use xlink:href="#TimesNewRomanPSMT-30"/>
      </g>
     </g>
    </g>
    <g id="ytick_17">
     <g id="line2d_31">
      <path d="M 333.41 149.306764 
L 439.118596 149.306764 
" clip-path="url(#p5b6b4ab3bc)" style="fill: none; stroke: #cccccc; stroke-width: 0.8; stroke-linecap: round"/>
     </g>
     <g id="text_38">
      <!-- 1 -->
      <g style="fill: #262626" transform="translate(322.41 152.084264) scale(0.08 -0.08)">
       <use xlink:href="#TimesNewRomanPSMT-31"/>
      </g>
     </g>
    </g>
    <g id="ytick_18">
     <g id="line2d_32">
      <path d="M 333.41 125.120582 
L 439.118596 125.120582 
" clip-path="url(#p5b6b4ab3bc)" style="fill: none; stroke: #cccccc; stroke-width: 0.8; stroke-linecap: round"/>
     </g>
     <g id="text_39">
      <!-- 2 -->
      <g style="fill: #262626" transform="translate(322.41 127.898082) scale(0.08 -0.08)">
       <use xlink:href="#TimesNewRomanPSMT-32"/>
      </g>
     </g>
    </g>
    <g id="ytick_19">
     <g id="line2d_33">
      <path d="M 333.41 100.9344 
L 439.118596 100.9344 
" clip-path="url(#p5b6b4ab3bc)" style="fill: none; stroke: #cccccc; stroke-width: 0.8; stroke-linecap: round"/>
     </g>
     <g id="text_40">
      <!-- 3 -->
      <g style="fill: #262626" transform="translate(322.41 103.7119) scale(0.08 -0.08)">
       <use xlink:href="#TimesNewRomanPSMT-33"/>
      </g>
     </g>
    </g>
    <g id="ytick_20">
     <g id="line2d_34">
      <path d="M 333.41 76.748218 
L 439.118596 76.748218 
" clip-path="url(#p5b6b4ab3bc)" style="fill: none; stroke: #cccccc; stroke-width: 0.8; stroke-linecap: round"/>
     </g>
     <g id="text_41">
      <!-- 4 -->
      <g style="fill: #262626" transform="translate(322.41 79.525718) scale(0.08 -0.08)">
       <use xlink:href="#TimesNewRomanPSMT-34"/>
      </g>
     </g>
    </g>
    <g id="ytick_21">
     <g id="line2d_35">
      <path d="M 333.41 52.562036 
L 439.118596 52.562036 
" clip-path="url(#p5b6b4ab3bc)" style="fill: none; stroke: #cccccc; stroke-width: 0.8; stroke-linecap: round"/>
     </g>
     <g id="text_42">
      <!-- 5 -->
      <g style="fill: #262626" transform="translate(322.41 55.339536) scale(0.08 -0.08)">
       <use xlink:href="#TimesNewRomanPSMT-35"/>
      </g>
     </g>
    </g>
    <g id="ytick_22">
     <g id="line2d_36">
      <path d="M 333.41 28.375855 
L 439.118596 28.375855 
" clip-path="url(#p5b6b4ab3bc)" style="fill: none; stroke: #cccccc; stroke-width: 0.8; stroke-linecap: round"/>
     </g>
     <g id="text_43">
      <!-- 6 -->
      <g style="fill: #262626" transform="translate(322.41 31.153355) scale(0.08 -0.08)">
       <use xlink:href="#TimesNewRomanPSMT-36"/>
      </g>
     </g>
    </g>
    <g id="text_44">
     <!-- Load [kW] -->
     <g style="fill: #262626" transform="translate(316.69875 118.592525) rotate(-90) scale(0.08 -0.08)">
      <use xlink:href="#TimesNewRomanPSMT-4c"/>
      <use xlink:href="#TimesNewRomanPSMT-6f" x="61.083984"/>
      <use xlink:href="#TimesNewRomanPSMT-61" x="111.083984"/>
      <use xlink:href="#TimesNewRomanPSMT-64" x="155.46875"/>
      <use xlink:href="#TimesNewRomanPSMT-20" x="205.46875"/>
      <use xlink:href="#TimesNewRomanPSMT-5b" x="230.46875"/>
      <use xlink:href="#TimesNewRomanPSMT-6b" x="263.769531"/>
      <use xlink:href="#TimesNewRomanPSMT-57" x="313.769531"/>
      <use xlink:href="#TimesNewRomanPSMT-5d" x="408.154297"/>
     </g>
    </g>
   </g>
   <g id="PolyCollection_3"/>
   <g id="line2d_37">
    <path d="M 338.214936 173.492945 
L 406.08886 173.492945 
L 406.424869 28.375855 
L 420.537269 28.375855 
L 420.873279 173.492945 
L 434.31366 173.492945 
L 434.31366 173.492945 
" clip-path="url(#p5b6b4ab3bc)" style="fill: none; stroke: #1f77b4; stroke-width: 1.5; stroke-linecap: round"/>
   </g>
   <g id="patch_13">
    <path d="M 333.41 180.7488 
L 333.41 21.12 
" style="fill: none; stroke: #cccccc; stroke-width: 0.8; stroke-linejoin: miter; stroke-linecap: square"/>
   </g>
   <g id="patch_14">
    <path d="M 439.118596 180.7488 
L 439.118596 21.12 
" style="fill: none; stroke: #cccccc; stroke-width: 0.8; stroke-linejoin: miter; stroke-linecap: square"/>
   </g>
   <g id="patch_15">
    <path d="M 333.41 180.7488 
L 439.118596 180.7488 
" style="fill: none; stroke: #cccccc; stroke-width: 0.8; stroke-linejoin: miter; stroke-linecap: square"/>
   </g>
   <g id="patch_16">
    <path d="M 333.41 21.12 
L 439.118596 21.12 
" style="fill: none; stroke: #cccccc; stroke-width: 0.8; stroke-linejoin: miter; stroke-linecap: square"/>
   </g>
   <g id="text_45">
    <!-- (c) -->
    <g style="fill: #262626" transform="translate(424.954416 204.578158) scale(0.08 -0.08)">
     <use xlink:href="#TimesNewRomanPSMT-28"/>
     <use xlink:href="#TimesNewRomanPSMT-63" x="33.300781"/>
     <use xlink:href="#TimesNewRomanPSMT-29" x="77.685547"/>
    </g>
   </g>
   <g id="text_46">
    <!-- EV Load -->
    <g style="fill: #262626" transform="translate(368.887548 15.12) scale(0.096 -0.096)">
     <defs>
      <path id="TimesNewRomanPSMT-45" d="M 1338 4006 
L 1338 2331 
L 2269 2331 
Q 2631 2331 2753 2441 
Q 2916 2584 2934 2947 
L 3050 2947 
L 3050 1472 
L 2934 1472 
Q 2891 1781 2847 1869 
Q 2791 1978 2662 2040 
Q 2534 2103 2269 2103 
L 1338 2103 
L 1338 706 
Q 1338 425 1363 364 
Q 1388 303 1450 267 
Q 1513 231 1688 231 
L 2406 231 
Q 2766 231 2928 281 
Q 3091 331 3241 478 
Q 3434 672 3638 1063 
L 3763 1063 
L 3397 0 
L 131 0 
L 131 116 
L 281 116 
Q 431 116 566 188 
Q 666 238 702 338 
Q 738 438 738 747 
L 738 3500 
Q 738 3903 656 3997 
Q 544 4122 281 4122 
L 131 4122 
L 131 4238 
L 3397 4238 
L 3444 3309 
L 3322 3309 
Q 3256 3644 3176 3769 
Q 3097 3894 2941 3959 
Q 2816 4006 2500 4006 
L 1338 4006 
z
" transform="scale(0.015625)"/>
     </defs>
     <use xlink:href="#TimesNewRomanPSMT-45"/>
     <use xlink:href="#TimesNewRomanPSMT-56" x="61.083984"/>
     <use xlink:href="#TimesNewRomanPSMT-20" x="131.550781"/>
     <use xlink:href="#TimesNewRomanPSMT-4c" x="156.550781"/>
     <use xlink:href="#TimesNewRomanPSMT-6f" x="217.634766"/>
     <use xlink:href="#TimesNewRomanPSMT-61" x="267.634766"/>
     <use xlink:href="#TimesNewRomanPSMT-64" x="312.019531"/>
    </g>
   </g>
  </g>
 </g>
 <defs>
  <clipPath id="p2c06ca576d">
   <rect x="36.83" y="21.12" width="105.708596" height="159.6288"/>
  </clipPath>
  <clipPath id="pa99821bded">
   <rect x="185.12" y="21.12" width="105.708596" height="159.6288"/>
  </clipPath>
  <clipPath id="p5b6b4ab3bc">
   <rect x="333.41" y="21.12" width="105.708596" height="159.6288"/>
  </clipPath>
 </defs>
</svg>
